<?xml version="1.0" standalone="no"?>
<!DOCTYPE svg PUBLIC "-//W3C//DTD SVG 20010904//EN"
 "http://www.w3.org/TR/2001/REC-SVG-20010904/DTD/svg10.dtd">
<svg version="1.0" xmlns="http://www.w3.org/2000/svg"
 width="717.000000pt" height="717.000000pt" viewBox="0 0 717.000000 717.000000"
 preserveAspectRatio="xMidYMid meet">
<metadata>
Created by potrace 1.11, written by Peter Selinger 2001-2013
</metadata>
<g transform="translate(0.000000,717.000000) scale(0.100000,-0.100000)"
fill="#000000" stroke="none">
<path d="M4015 7057 c-27 -15 -55 -19 -55 -7 0 16 -30 12 -36 -5 -4 -8 -9 -13
-14 -10 -4 2 -16 -3 -26 -13 -10 -9 -37 -18 -58 -19 -22 -2 -42 -6 -45 -10 -8
-11 -64 -17 -58 -6 11 17 -10 35 -32 28 -12 -3 -19 -10 -16 -14 2 -5 -7 -13
-20 -19 -15 -7 -25 -8 -25 -2 0 15 -27 12 -44 -6 -9 -8 -16 -12 -16 -8 0 3 -6
1 -14 -5 -11 -10 -16 -8 -24 5 -11 20 -42 12 -42 -10 0 -8 -9 -18 -20 -21 -11
-4 -18 -11 -15 -16 4 -5 2 -9 -4 -9 -5 0 -16 -3 -25 -6 -10 -4 -16 -1 -16 8 0
18 -30 19 -48 1 -7 -7 -11 -13 -7 -13 4 0 0 -6 -7 -14 -8 -7 -26 -12 -41 -11
-21 3 -27 -1 -27 -15 0 -10 -5 -22 -12 -26 -7 -5 -8 -3 -3 7 7 12 6 12 -7 1
-13 -10 -17 -10 -22 3 -3 10 -15 15 -27 13 -17 -2 -26 -15 -36 -52 -11 -36
-17 -46 -26 -37 -18 18 -36 13 -43 -14 -7 -28 -8 -29 -34 -15 -22 12 -50 -11
-50 -41 0 -15 -5 -18 -26 -15 -15 3 -29 7 -31 10 -13 12 -30 -20 -22 -41 8
-22 6 -23 -37 -19 l-45 3 6 -37 c7 -39 -8 -56 -39 -44 -7 3 -21 -2 -30 -11
-18 -19 -21 -35 -5 -35 5 0 8 -4 4 -9 -3 -5 -2 -12 3 -15 13 -8 6 -66 -12
-107 -8 -20 -12 -39 -9 -43 4 -3 2 -6 -3 -6 -18 0 -19 -48 -10 -350 3 -102 8
-196 11 -210 3 -14 8 -43 11 -65 3 -22 7 -49 9 -60 3 -19 6 -29 21 -95 3 -14
8 -38 11 -55 2 -16 10 -36 15 -42 6 -7 8 -13 5 -13 -5 0 12 -70 29 -120 3 -8
5 -16 5 -18 -1 -1 5 -18 13 -37 8 -19 12 -35 9 -35 -3 0 0 -6 6 -13 6 -8 8
-17 4 -20 -3 -4 -1 -7 5 -7 7 0 11 -3 10 -7 -3 -15 26 -98 49 -140 13 -24 21
-43 17 -43 -4 0 0 -7 7 -16 8 -9 14 -22 14 -28 0 -17 97 -175 126 -207 15 -16
25 -30 22 -32 -2 -2 12 -21 32 -42 19 -22 35 -43 35 -47 0 -4 6 -8 14 -8 8 0
18 -9 21 -20 3 -11 13 -20 21 -20 8 0 13 -4 9 -10 -3 -5 6 -17 21 -26 25 -17
25 -18 8 -31 -67 -47 -159 -134 -197 -185 -15 -21 -33 -38 -40 -38 -15 0 -67
-47 -67 -61 0 -13 -69 -79 -84 -79 -36 0 -386 -156 -386 -172 0 -4 -6 -8 -14
-8 -8 0 -21 -6 -28 -12 -7 -7 -39 -30 -70 -51 -31 -21 -78 -59 -105 -85 -54
-52 -129 -142 -119 -142 4 0 -1 -9 -11 -20 -16 -16 -50 -96 -60 -135 -19 -82
-19 -85 -38 -240 -11 -89 -18 -210 -31 -530 -5 -124 -4 -1468 1 -1530 2 -27 5
-81 5 -119 0 -38 4 -74 9 -80 5 -6 11 -34 15 -62 5 -44 2 -55 -20 -85 -66 -88
-88 -183 -55 -235 22 -35 71 -64 109 -64 31 0 92 21 92 32 0 4 5 8 10 8 7 0 8
-13 4 -34 -10 -56 4 -92 47 -125 22 -16 48 -28 57 -26 9 2 22 4 29 4 6 1 36
24 67 52 50 46 56 49 54 27 -3 -38 21 -86 47 -92 34 -9 127 29 172 69 21 19
41 35 46 35 4 0 6 -119 4 -265 l-3 -265 1054 2 1054 3 -1 320 c-1 176 -4 337
-8 359 -3 21 -2 41 4 45 12 8 82 121 130 211 111 208 116 218 119 293 2 40 6
110 8 157 27 481 27 1321 1 1570 -2 19 -6 69 -9 110 -4 41 -9 91 -11 110 -3
19 -7 49 -9 65 -4 27 -18 122 -21 135 -1 3 -7 32 -14 65 -16 75 -44 159 -75
227 -22 48 -42 69 -130 140 -11 10 -25 21 -31 26 -34 27 -216 162 -220 162 -5
0 -98 62 -105 71 -3 3 -24 14 -47 25 -41 18 -52 38 -22 40 8 0 16 2 19 3 5 3
24 8 50 14 43 10 61 21 79 50 11 18 29 44 41 56 11 13 20 27 20 31 0 4 9 17
20 30 11 12 17 27 14 31 -3 5 -1 9 4 9 9 0 28 26 67 91 6 9 17 25 25 35 13 16
13 17 0 9 -8 -4 -6 2 5 13 36 37 44 50 38 56 -4 3 -1 6 6 6 7 0 9 5 6 10 -3 6
-1 10 4 10 6 0 10 3 9 8 0 4 7 25 17 47 10 22 19 51 20 65 2 14 4 25 5 25 3 0
9 40 16 105 13 113 6 365 -12 510 -10 75 -5 164 10 188 4 6 5 12 1 12 -3 0 1
14 10 30 9 17 13 30 10 30 -2 0 4 16 15 36 11 19 15 32 9 28 -8 -5 -9 -3 -3 7
4 8 9 19 10 24 1 6 5 24 9 40 18 83 13 112 -28 161 -16 19 -25 45 -32 99 -1
11 -3 20 -5 20 -1 0 -3 9 -5 20 -4 21 -12 57 -15 65 -1 3 -3 10 -5 15 -1 6 -3
13 -5 18 -1 4 -3 15 -4 25 -1 9 -4 22 -8 28 -4 6 -10 25 -13 42 -3 17 -10 44
-17 59 -6 15 -11 31 -10 35 1 4 -7 28 -18 53 -11 25 -17 45 -13 45 3 0 -1 8
-9 18 -21 23 -32 62 -19 62 17 0 13 30 -5 37 -8 3 -13 12 -10 19 6 15 -32 46
-46 38 -4 -3 -8 0 -8 5 0 6 -7 11 -15 11 -9 0 -15 9 -15 23 0 28 -17 47 -35
40 -14 -5 -15 13 -2 35 5 7 3 12 -3 12 -6 0 -9 4 -6 9 3 4 -7 8 -22 7 -19 -1
-26 3 -24 15 1 9 -9 21 -22 27 -18 8 -23 16 -19 31 6 22 1 24 -54 21 -18 -1
-33 3 -33 9 0 6 -17 13 -38 17 -28 4 -38 11 -38 25 0 10 4 19 8 19 5 0 4 9 -2
20 -6 11 -16 18 -22 14 -6 -4 -24 -8 -40 -9 -22 -2 -32 2 -35 15 -3 12 -14 19
-31 19 -33 0 -57 5 -58 11 0 3 -6 15 -12 27 -12 21 -14 21 -54 7 -22 -8 -42
-13 -44 -12 -1 2 -8 17 -16 35 -11 28 -15 31 -33 20z"/>
</g>
</svg>
